<svg xmlns="http://www.w3.org/2000/svg" baseProfile="full" version="1.1" width="765px" height="765px" style="fill: none; width: 765px; height: 765px;"><path d="" style="stroke-width: 15; stroke-linecap: round; stroke-linejoin: round; stroke: rgb(106, 106, 106); fill: none;"/><path d="" style="stroke-width: 15; stroke-linecap: round; stroke-linejoin: round; stroke: rgb(74, 74, 74); fill: none;"/><path d="M90,90 L90,90 L105,90 M90,75 L90,75 L90,105 M75,90 L75,90 L90,90 M240,75 L240,75 L240,105 M225,90 L225,90 L255,90 M375,90 L375,90 L405,90 M390,75 L390,75 L390,105 M525,90 L525,90 L555,90 M540,75 L540,75 L540,105 M675,90 L675,90 L705,90 M690,75 L690,75 L690,105 M90,375 L90,375 L90,405 M75,240 L75,240 L105,240 M90,225 L90,225 L90,255 M75,390 L75,390 L105,390 M90,525 L90,525 L90,555 M90,675 L90,675 L90,705 M75,690 L75,690 L105,690 M75,540 L75,540 L105,540 M225,240 L225,240 L255,240 M375,240 L375,240 L405,240 M525,240 L525,240 L555,240 M675,240 L675,240 L705,240 M225,390 L225,390 L255,390 M225,540 L225,540 L255,540 M225,690 L225,690 L255,690 M375,390 L375,390 L405,390 M375,540 L375,540 L405,540 M375,690 L375,690 L405,690 M525,390 L525,390 L555,390 M525,540 L525,540 L555,540 M525,690 L525,690 L555,690 M675,690 L675,690 L705,690 M675,540 L675,540 L705,540 M675,390 L675,390 L705,390 M690,225 L690,225 L690,255 M690,375 L690,375 L690,405 M690,525 L690,525 L690,555 M690,675 L690,675 L690,705 M540,675 L540,675 L540,705 M540,525 L540,525 L540,555 M540,375 L540,375 L540,405 M540,225 L540,225 L540,255 M390,225 L390,225 L390,255 M390,375 L390,375 L390,405 M390,525 L390,525 L390,555 M390,675 L390,675 L390,705 M240,705 L240,705 L240,675 M240,555 L240,555 L240,525 M240,375 L240,375 L240,405 M240,225 L240,225 L240,255 " style="stroke-width: 1; stroke-linecap: round; stroke-linejoin: round; stroke: rgb(0, 0, 0); fill: rgb(0, 0, 0);"/></svg>