<svg xmlns="http://www.w3.org/2000/svg" baseProfile="full" version="1.1" width="480px" height="360px" style="fill: none; width: 480px; height: 360px;"><path d="" style="stroke-width: 10; stroke-linecap: round; stroke-linejoin: round; stroke: rgb(204, 204, 204); fill: none;"/><path d="" style="stroke-width: 10; stroke-linecap: round; stroke-linejoin: round; stroke: rgb(153, 153, 153); fill: none;"/><path d="M300,300 L300,240 A60,60 0 0,1 360,180 L420,180 L420,240 A60,60 0 0,1 360,300 L300,300 M180,240 A60,60 0 0,1 120,300 L60,300 L60,240 A60,60 0 0,1 120,180 L180,180 L180,240 M180,180 L180,120 A60,60 0 0,1 240,60 L300,60 L300,120 A60,60 0 0,1 240,180 L180,180 " style="stroke-width: 31; stroke-linecap: square; stroke-linejoin: miter; stroke: rgb(0, 0, 0); fill: none;"/></svg>